<?xml version="1.0" standalone="no"?>
<!DOCTYPE svg PUBLIC "-//W3C//DTD SVG 20010904//EN"
 "http://www.w3.org/TR/2001/REC-SVG-20010904/DTD/svg10.dtd">
<svg version="1.0" xmlns="http://www.w3.org/2000/svg"
 width="107.000000pt" height="107.000000pt" viewBox="0 0 107.000000 107.000000"
 preserveAspectRatio="xMidYMid meet">
<metadata>
Created by potrace 1.14, written by Peter Selinger 2001-2017
</metadata>
<g transform="translate(0.000000,107.000000) scale(0.100000,-0.100000)"
fill="#000000" stroke="none">
<path d="M313 951 c-117 -64 -215 -120 -218 -123 -4 -3 36 -32 89 -63 l95 -57
125 70 c111 63 127 69 148 58 13 -7 71 -38 130 -70 l107 -57 90 53 c50 29 91
56 91 60 0 3 -28 22 -62 41 -132 72 -154 85 -188 104 -70 40 -189 103 -192
102 -2 -1 -98 -54 -215 -118z"/>
<path d="M918 702 l-98 -57 0 -145 0 -145 -118 -65 -117 -65 -3 -112 -3 -113
58 32 c32 17 87 48 123 68 133 77 176 101 218 122 l42 22 0 258 c0 142 -1 258
-2 258 -2 -1 -47 -27 -100 -58z"/>
<path d="M52 494 l3 -255 205 -115 c113 -63 209 -114 215 -114 10 0 14 206 4
213 -2 2 -56 32 -119 67 -63 34 -117 64 -119 66 -2 2 -4 68 -4 147 l0 144 -88
52 c-49 28 -91 51 -94 51 -3 0 -4 -115 -3 -256z"/>
<path d="M428 693 l-98 -55 0 -113 0 -114 104 -55 103 -56 102 57 101 57 0
111 0 112 -103 56 c-57 32 -106 57 -108 56 -2 -1 -48 -26 -101 -56z"/>
</g>
</svg>
