<svg xmlns="http://www.w3.org/2000/svg" width="770.93612" height="732.49996" viewBox="0 0 770.93612 732.49996" xmlns:xlink="http://www.w3.org/1999/xlink"><path d="M733.06299,173.90909c.3746-.55167,9.70359,8.83929,18.18839,6.90676,10.56991-2.40745,18.30196-22.0396,12.57031-30.43674-3.79328-5.55719-13.22746-5.81843-13.03117-6.86072,.20997-1.11523,10.36282,2.62319,15.88591-1.84206,6.70961-5.42439,5.30762-21.92162-2.90124-30.57467-1.64241-1.73129-4.37048-4.60701-8.28835-4.83476-7.69534-.44741-13.73681,9.68346-16.39232,14.13638-8.44263,14.15717-9.13441,29.01017-10.17591,28.87113-.96283-.12862,1.5936-12.5582-3.03922-15.10314-1.01489-.5575-2.22072-.54973-3.41922-.27273,.30332-.78428,.52153-1.59168,.63181-2.42185,.69533-5.23469-3.46367-10.79951-8.3779-15.4645,5.118,3.03197,10.90325,5.13431,16.02144,3.6305,11.43393-3.35943,19.04174-24.55962,13.03068-37.57385-4.19822-9.08951-14.90401-13.89202-14.55079-14.41235,.3746-.55167,9.70359,8.83929,18.18834,6.90675,10.56995-2.40738,18.30202-22.03959,12.57029-30.43669-3.79321-5.55723-13.2274-5.81847-13.03115-6.86077,.21003-1.11522,10.36286,2.62325,15.88594-1.84199,6.70963-5.42444,5.30757-21.92164-2.90124-30.57467-1.64245-1.73136-4.37047-4.60706-8.2884-4.83477-7.69529-.44739-13.73676,9.68347-16.39227,14.13639-8.44261,14.15712-9.13441,29.01017-10.1759,28.87108-.96283-.12862,1.5936-12.5582-3.03922-15.10314-2.90095-1.59359-7.36295,1.37917-8.7488,2.30243-15.23944,10.15274-11.01626,32.22933-25.09461,55.7162-4.53298,7.56236-9.04936,12.0781-12.85985,15.4939-1.74099-21.02901,4.67089-37.17177-5.04213-49.39932-1.03577-1.30392-4.37061-5.5022-7.62052-4.8754-5.1902,1.00088-6.57033,13.61539-7.52612,13.44239-1.034-.18714,2.86434-14.53615-.82792-30.60071-1.16134-5.05286-3.8035-16.54864-11.26496-18.48362-3.79882-.98521-7.2776,.91489-9.37195,2.05883-10.46762,5.7174-16.8632,20.98896-12.14129,28.2102,3.88689,5.94436,14.69702,5.50095,14.5548,6.62684-.13298,1.05227-9.19236-1.59342-14.50758,2.53211-8.03148,6.23374-6.69513,27.29135,2.62652,32.82537,7.48274,4.4424,19.2429-1.63372,19.43014-.9937,.17656,.60362-11.48629,1.89012-18.27062,9.25334-2.81626,3.05653-4.74816,7.1214-5.84006,11.51322-9.23919,.69441-17.14664,7.31456-17.44267,6.80443-.33468-.57674,12.17302-4.91005,14.11138-13.39352,2.41476-10.56828-11.92186-26.04953-21.97396-24.52653-6.65253,1.00791-10.97929,9.3954-11.8334,8.76654-.91379-.6729,6.85788-8.19994,5.22969-15.11316-1.97794-8.39824-17.45102-14.28948-28.80802-10.64546-2.27233,.72912-6.04665,1.9401-7.95094,5.37164-3.74046,6.73993,2.768,16.57733,5.62875,20.90123,9.09514,13.74706,22.17864,20.81187,21.60163,21.69004-.53343,.81181-10.62464-6.88221-14.92695-3.8114-2.69399,1.92278-1.95047,7.23259-1.71959,8.8817,2.53926,18.13482,24.26322,23.90369,39.32095,46.77503,12.26156,18.62435,7.0297,28.73244,17.41788,33.78056,4.45975,2.16719,10.13818,2.58627,15.94209,1.54268l-.00004,.00032c-4.49169,30.07776-5.76127,81.5169-5.76127,81.5169-1.26768,51.4533-7.882,93.82716-10.77804,93.74559-1.60771-.04863-1.01513-13.00949-5.88587-33.85152-3.41839-14.61279-5.03232-13.93929-13.90785-40.01198-14.08464-41.35929-21.12609-62.03189-21.14099-62.14525-.07467-.89869-.19762-2.71375-.71231-4.54964,10.42479-2.91693,20.54793-10.38966,24.06438-20.87686,2.81313-8.38966,2.07421-20.85238-4.76898-25.34209-4.41516-2.89672-11.23303-1.56267-17.56768,.84224,4.95154-3.29673,9.35474-7.59782,10.21934-12.86176,1.93163-11.75965-13.87178-27.80892-28.20536-28.03661-10.01088-.15906-18.98119,7.40476-19.29684,6.8608-.33468-.57674,12.17304-4.9101,14.11138-13.39352,2.41476-10.56828-11.92186-26.04953-21.97396-24.52653-6.65246,1.00787-10.97929,9.3954-11.83335,8.76656-.91384-.67291,6.85783-8.19996,5.22969-15.11316-1.97794-8.39824-17.45107-14.2895-28.80807-10.64548-2.27233,.72912-6.0466,1.94012-7.95094,5.37164-3.74046,6.73993,2.76802,16.57728,5.62875,20.90123,9.09514,13.74706,22.1787,20.81189,21.60168,21.69006-.53343,.81181-10.62464-6.88221-14.927-3.81142-2.69399,1.92278-1.95047,7.23259-1.71954,8.88172,2.53921,18.1348,24.26322,23.90369,39.3209,46.77502,12.26156,18.62435,7.0297,28.73244,17.41794,33.78057,1.79752,.87352,3.79716,1.45529,5.91893,1.78112l.00027,.00983c.91436,14.22014,26.53164,52.43552,40.79021,106.77041,7.10209,27.07004,10.988,41.83787,8.19069,62.40242-2.76301,20.38693-10.43528,34.14714-10.29595,43.23209,.0106,.84981,.08464,1.63355,.24188,2.39192l42.10742-5.52685c.28245-.81605,.50435-1.65308,.68006-2.51294,3.20661-15.46791-8.4919-38.97715-2.54735-76.89175,4.41499-28.13454,16.51115-51.27569,22.15074-62.05688,6.93001-13.25861,15.11739-25.73017,23.95793-45.09649,5.67609,3.1259,12.11198,4.78541,18.49841,3.98261,8.77965-1.10366,19.68894-7.17433,20.76671-15.28762,.69531-5.23463-3.46361-10.7995-8.37787-15.46443,5.118,3.03197,10.9032,5.13429,16.02138,3.63049,11.43395-3.35948,19.04174-24.55962,13.0307-37.5739-4.19824-9.08946-14.90402-13.89197-14.5508-14.4123Zm-171.30952,13.86326c-.03087-.06091,.40877-.25228,1.17471-.56306-.72163,.40519-1.14377,.62411-1.17471,.56306Zm139.97648-81.86568c-.67805-.4745-1.05834-.75994-1.01677-.81426,.04149-.05423,.40454,.25888,1.01677,.81426Zm-43.66724,21.70548c.75316-.34079,1.19488-.52748,1.21771-.46313,.02291,.06447-.42671,.21948-1.21771,.46313Zm-34.60722,24.65072c-.03087-.06091,.40885-.25236,1.17492-.56322-.72177,.40526-1.14398,.62427-1.17492,.56322Zm12.11327,108.77432c-1.0109-.22796,11.2862-49.9664,13.30299-76.37299,5.83607-3.82606,10.62962-9.21363,12.83191-15.78159,.03824-.11406,.07328-.23175,.11019-.3473,1.16703-.16199,2.32839-.38169,3.4781-.65267-4.11477,10.40543-6.41136,17.96126-6.41136,17.96126-10.68593,35.20432-22.38974,75.40408-23.31183,75.19329Zm45.89508-16.23814c-3.37465,5.17499-7.32929,11.53684-12.7748,21.26827-13.96763,24.93053-20.94525,37.38773-22.78015,46.27017-.48217,2.37149-3.02551,15.19889-8.85497,31.45832-2.97934,8.29686-4.46892,12.44526-5.60195,12.27664-3.20903-.48768-3.26322-33.21474,5.61936-67.10039,1.5223-5.7685,2.73603-9.49121,5.04351-16.53138,3.74394-11.48452,24.608-75.32021,41.02079-114.04615l.00219-.00516c3.03111-2.90544,5.29856-6.22868,6.41167-9.72715,.35533-1.11679,.55537-2.15023,.63476-3.13334,3.92549,1.24796,8.04321,1.75051,12.14101,1.23538,2.29177-.2881,4.72802-.91742,7.09726-1.83036-6.55422,11.61459-6.44843,29.00797-17.38653,47.25601-11.46416,19.12548-22.84116,18.79499-22.88469,30.34467-.02891,7.67049,4.96429,16.15515,12.31751,22.25685l-.00499,.00761Zm23.09691-33.45405c.04149-.05423,.40464,.25891,1.01687,.81429-.6781-.47451-1.05844-.75996-1.01687-.81429Z" fill="#f2f2f2"/><path d="M264.22557,161.60933c6.42903-1.0713,13.4254,6.78055,16.34749,10.05999,7.80135,8.75537,9.43017,18.94116,10.05999,23.26374,9.94072,68.22555,14.91101,102.33828-5.65875,118.20493-19.54865,15.07901-55.28146,11.0352-62.24621-2.515-2.71302-5.27837-.4447-10.80049,3.14375-21.37749,6.63196-19.54826,10.54123-39.92199,16.34749-59.73121,13.25793-45.23152,12.14503-66.2617,22.00624-67.90496Z" fill="#2f2e41"/><path d="M88.80443,416.25292l-31.28563,59.04904c-7.98636,15.07359-45.77705,247.272-28.97129,250.198l72.79596,2.41503,30.20404,1.58497,31.04568,.44701,76.95432,2.55299-43.2269-302.41455-107.51618-13.83249Z" fill="#2f2e41"/><path d="M165.82626,243.0324l62.24621,2.515,5.03,20.74874,14.98982,12.22854c5.51148,4.49621,8.21505,11.58483,7.09752,18.60931l-6.99735,43.98335s13.20374,31.43748-20.11999,51.55747l-33.32373,54.07247-115.68993-11.94624s-10.68874-1.2575-3.14375-8.80249c7.545-7.545,16.97624-44.64122,16.97624-44.64122,0,0-1.2575-16.34749,3.14375-20.74874s1.33671-15.71874,1.33671-15.71874l17.90222-66.17495c3.48841-12.89478,15.18818-21.85,28.54649-21.85h19.85219l2.15359-13.83249Z" fill="#4885ed"/><path d="M644.66714,666.15816L101.04946,520.87105c-11.61426-3.10449-19.70752-12.44824-21.12158-24.38672s4.27246-22.91504,14.83984-28.64648l220.92334-119.81543c5.58301-3.02881,12.11133-4.12891,18.37793-3.09375l365.15674,60.19727c7.79541,1.28516,14.55078,5.58105,19.02197,12.09473s6.05029,14.36133,4.44727,22.09766l-42.46191,204.9043c-1.62109,7.82129-6.25781,14.4375-13.05615,18.63086-4.60889,2.84277-9.7666,4.29687-15.01563,4.29687-2.49365,0-5.00879-.32813-7.49414-.99219Z" fill="#fff"/><path d="M644.66714,666.15816L101.04946,520.87105c-11.61426-3.10449-19.70752-12.44824-21.12158-24.38672s4.27246-22.91504,14.83984-28.64648l220.92334-119.81543c5.58301-3.02881,12.11133-4.12891,18.37793-3.09375l365.15674,60.19727c7.79541,1.28516,14.55078,5.58105,19.02197,12.09473s6.05029,14.36133,4.44727,22.09766l-42.46191,204.9043c-1.62109,7.82129-6.25781,14.4375-13.05615,18.63086-4.60889,2.84277-9.7666,4.29687-15.01563,4.29687-2.49365,0-5.00879-.32813-7.49414-.99219Zm54.07031-258.07129l-365.15674-60.19824c-5.61279-.92676-11.4585,.05811-16.45947,2.77051l-220.92285,119.81543c-9.46484,5.13281-14.55811,14.96387-13.2915,25.65625s8.51514,19.06152,18.91699,21.8418l543.61768,145.28711c6.91113,1.8457,14.07178,.7959,20.16064-2.95996,6.08887-3.75488,10.2417-9.68164,11.69336-16.68652l42.46191-204.9043c1.43555-6.92773,.021-13.95703-3.9834-19.79102-4.00439-5.83398-10.05469-9.68066-17.03662-10.83105l.24414-1.48047-.24414,1.48047Z" fill="#ccc"/><path d="M619.76094,464.49432l-48.47976,122.33211c-4.70005,11.85993-17.89473,17.9281-29.95794,13.77751l-356.33529-122.60438c-19.67545-6.76974-21.87361-33.71804-3.55537-43.58691l114.67524-61.78076c4.98928-2.68795,10.77215-3.5131,16.31409-2.32783l290.13982,62.05302c14.43825,3.08795,22.63885,18.41102,17.19921,32.13723Z" fill="#f2f2f2"/><ellipse cx="526.41415" cy="474.72663" rx="20.11999" ry="10.05999" fill="#ff6884"/><ellipse cx="507.55166" cy="505.53536" rx="20.11999" ry="10.05999" fill="#3f3d56"/><ellipse cx="399.40673" cy="464.03789" rx="54.70122" ry="27.35061" fill="#4885ed"/><path d="M304.46554,462.781c.77611,0,1.50372-.48323,1.77818-1.25689,.34753-.98181-.1664-2.06001-1.1482-2.40816l-39.91578-14.14687c-.97935-.34692-2.0594,.16578-2.40816,1.1482-.34753,.98181,.1664,2.06001,1.1482,2.40816l39.91578,14.14687c.20815,.07368,.4206,.10868,.62998,.10868Z" fill="#3f3d56"/><path d="M313.26804,455.86476c.77611,0,1.50372-.48323,1.77818-1.25689,.34753-.98181-.1664-2.06001-1.1482-2.40816l-39.91578-14.14687c-.97935-.34692-2.0594,.16578-2.40816,1.1482-.34753,.98181,.1664,2.06001,1.1482,2.40816l39.91578,14.14687c.20815,.07368,.4206,.10868,.62998,.10868Z" fill="#3f3d56"/><path d="M322.07053,448.94851c.77611,0,1.50372-.48323,1.77818-1.25689,.34753-.98181-.1664-2.06001-1.1482-2.40816l-39.91578-14.14687c-.97997-.3463-2.06001,.16578-2.40816,1.1482-.34753,.98181,.1664,2.06001,1.1482,2.40816l39.91578,14.14687c.20815,.07368,.4206,.10868,.62998,.10868Z" fill="#3f3d56"/><path d="M330.87303,442.03227c.77611,0,1.50372-.48323,1.77818-1.25689,.34753-.98181-.1664-2.06001-1.1482-2.40816l-39.91578-14.14687c-.97935-.34692-2.06001,.16578-2.40816,1.1482-.34753,.98181,.1664,2.06001,1.1482,2.40816l39.91578,14.14687c.20815,.07368,.4206,.10868,.62998,.10868Z" fill="#3f3d56"/><path d="M339.67552,435.11602c.77611,0,1.50372-.48323,1.77818-1.25689,.34753-.98181-.1664-2.06001-1.1482-2.40816l-39.91578-14.14687c-.97935-.34692-2.0594,.16578-2.40816,1.1482-.34753,.98181,.1664,2.06001,1.1482,2.40816l39.91578,14.14687c.20815,.07368,.4206,.10868,.62998,.10868Z" fill="#3f3d56"/><path d="M348.47801,428.19977c.77611,0,1.50372-.48323,1.77818-1.25689,.34753-.98181-.1664-2.06001-1.1482-2.40816l-39.91578-14.14687c-.97997-.3463-2.0594,.16578-2.40816,1.1482-.34753,.98181,.1664,2.06001,1.1482,2.40816l39.91578,14.14687c.20815,.07368,.4206,.10868,.62998,.10868Z" fill="#3f3d56"/><path d="M357.28051,421.28353c.77611,0,1.50372-.48323,1.77818-1.25689,.34753-.98181-.1664-2.06001-1.1482-2.40816l-39.91578-14.14687c-.97997-.34692-2.0594,.16578-2.40816,1.1482-.34753,.98181,.1664,2.06001,1.1482,2.40816l39.91578,14.14687c.20815,.07368,.4206,.10868,.62998,.10868Z" fill="#3f3d56"/><circle cx="222.72809" cy="211.9093" r="51.55747" fill="#a0616a"/><path d="M233.41684,135.20185c-14.51604-2.36625-22.31109-3.63688-30.17998-1.88625-15.76326,3.50694-24.90683,17.59946-31.43748,27.66498-15.61712,24.07009-8.55643,34.18634-23.89248,67.90496-11.00143,24.18844-16.54796,23.18875-17.60499,35.83873-2.21874,26.55354,20.36943,53.11583,44.64122,63.50371,1.621,.69376,26.84512,11.24888,33.95248,2.515,5.21036-6.40278-3.9937-17.42339-15.08999-47.15622-19.51135-52.2807-10.29178-69.7539-7.545-74.19245,1.73536-2.8042,6.68522-9.77448,9.43124-8.80249,2.48445,.87942,.33387,7.25856,2.515,12.57499,5.84372,14.24327,41.36331,17.40574,69.16246,6.2875,8.198-3.27883,13.22846-5.29072,16.97624-10.68874,12.71637-18.3154-2.4645-56.69806-26.40748-67.90496-5.44691-2.54946-11.80502-3.58591-24.52123-5.65875Z" fill="#2f2e41"/><path id="b-195" d="M196.55395,442.38181c12.53938,6.36022,19.42187,17.98569,15.37288,25.96517-4.049,7.97948-17.49448,9.29033-30.03748,2.92617-5.04528-2.4735-9.42486-6.11927-12.77227-10.63234l-52.78954-27.61949,13.48904-24.49632,50.60902,29.82866c5.62069,.03539,11.15113,1.41664,16.12835,4.02815Z" fill="#a0616a"/><path id="c-196" d="M443.4483,406.84476c13.20902,4.8177,21.43021,15.53835,18.36282,23.94415-3.0674,8.4058-16.26022,11.31249-29.4733,6.4913-5.3045-1.85347-10.08801-4.95031-13.95028-9.03146l-55.70937-21.11959,10.46804-25.93153,53.8082,23.57329c5.58471-.6359,11.2405,.07521,16.49391,2.07383Z" fill="#a0616a"/><path d="M136.5894,269.75426s-10.68874-22.00624-35.20998-5.03c-24.52123,16.97624-82.99495,87.39619-82.99495,87.39619,0,0-30.17998,26.40748-13.20374,35.83873s138.95366,64.13246,138.95366,64.13246l30.80873-21.37749-109.40243-55.95871,62.84278-47.15622,8.20592-57.84496Z" fill="#4885ed"/><path d="M243.47683,282.958s7.48064-10.68874,20.71656,0,51.32973,72.23477,51.32973,72.23477l93.94361,38.42516-13.83249,28.29373-112.54618-40.23997-49.04247-66.64746,9.43124-32.06623Z" fill="#4885ed"/><path d="M237.50371,263.78114c-14.25877,7.28089-7.69788,18.45954-8.17374,20.74874-4.63396,22.28976,12.3059,45.37727,18.86249,44.01247,3.84649-.80067,5.86843-10.3812,5.03-17.60499-1.08696-9.36478,7.91924-24.18798,6.91625-30.80873-2.46066-16.24257,12.38618-16.54681,9.43124-22.63499-1.73182-3.56811-23.56905,1.94857-32.06623,6.2875Z" fill="#2f2e41"/><path d="M402.78676,492.83492c.05908,0,.11865-.00293,.17822-.01074,.82275-.09668,1.41064-.84277,1.31348-1.66602l-3.38184-28.55371c-.04687-.39551-.24902-.75586-.56201-1.00195-.31348-.24609-.70947-.35645-1.10693-.31055l-53.70898,6.45898c-.82227,.09863-1.40918,.8457-1.31006,1.66797,.09912,.82324,.84668,1.41406,1.66846,1.31055l52.2168-6.2793,3.20508,27.06152c.09033,.7627,.73828,1.32324,1.48779,1.32324Z" fill="#fff"/><g><circle cx="126.2168" cy="492.41335" r="28" fill="#4885ed"/><path d="M113.4952,488.04606l8.99961,15.82695c.53547,.9417,2.07312,1.01015,2.59041,0,3.51481-6.86363,8.47904-12.94043,14.59819-17.64931,.64677-.49771,.9751-1.28443,.53813-2.05228-.36182-.63579-1.41144-1.03128-2.05228-.53813-6.53583,5.02954-11.91086,11.37614-15.67444,18.72557h2.59041l-8.99961-15.82695c-.95425-1.67817-3.5471-.16829-2.59041,1.51416h0Z" fill="#fff"/></g></svg>