<svg xmlns="http://www.w3.org/2000/svg" width="719.53003" height="455.3648" viewBox="0 0 719.53003 455.3648" xmlns:xlink="http://www.w3.org/1999/xlink"><path d="M602.46002,35.65002H.67004c.84998-4.82001,2.50995-9.38,4.82996-13.51001C12.91003,8.94,27.04004,0,43.23004,0H559.90002c16.17999,0,30.32001,8.94,37.71997,22.14001,2.32001,4.13,3.98999,8.69,4.84003,13.51001Z" fill="#f2f2f2"/><path d="M719.53003,453.70001c0,.65997-.53003,1.19-1.19,1.19h-247.29004c-.65997,0-1.19-.53003-1.19-1.19,0-.32001,.12006-.60004,.32001-.81h89.72003c1.90997,0,3.77997-.13,5.62-.38h152.82001c.65997,0,1.19,.52997,1.19,1.19Z" fill="#3f3d56"/><path d="M479.56149,211.14001H123.56149c-3.30859,0-6-2.69141-6-6s2.69141-6,6-6H479.56149c3.30859,0,6,2.69141,6,6s-2.69141,6-6,6Z" fill="#e6e6e6"/><path d="M602.46002,35.65002c-.85004-4.82001-2.52002-9.38-4.84003-13.51001-7.39996-13.20001-21.53998-22.14001-37.71997-22.14001H43.23004C27.04004,0,12.91003,8.94,5.5,22.14001c-2.32001,4.13-3.97998,8.69-4.82996,13.51001-.44,2.45996-.67004,4.98999-.67004,7.57996V411.65997c0,23.84003,19.39001,43.23004,43.23004,43.23004H559.90002c4.94,0,9.70001-.84003,14.13-2.38,16.91998-5.85999,29.09998-21.96002,29.09998-40.85004V43.22998c0-2.57996-.22998-5.12-.66998-7.57996Zm-1.33002,376.00995c0,20.86005-15.5,38.11005-35.60999,40.85004-1.84003,.25-3.71002,.38-5.62,.38H104.64001c-56.69,0-102.64001-45.96002-102.64001-102.65002V43.22998c0-2.58997,.23999-5.12,.70001-7.57996,.90002-4.86005,2.65002-9.41003,5.09998-13.51001C14.98999,10.08002,28.17004,2,43.23004,2H559.90002c15.06,0,28.23999,8.08002,35.42999,20.14001,2.45001,4.09998,4.20001,8.64996,5.09998,13.51001,.46002,2.45996,.70001,4.98999,.70001,7.57996V411.65997Z" fill="#3f3d56"/><g><polygon points="575.92614 216.07954 572.54224 203.6719 587.7698 198.03206 589.46176 209.31174 575.92614 216.07954" fill="#ffb6b6"/><polygon points="575.92614 216.07954 572.54224 203.6719 581.50997 199.88928 578.7238 214.51667 575.92614 216.07954" opacity=".1"/><g><path d="M531.34948,322.41741c-2.90853-1.73048-3.06193-6.83837-.34257-11.409,1.19035-2.00073,2.73393-3.56664,4.33725-4.55005l1.59694-2.60912,20.20194-36.21605s8.84318-34.15634,12.44344-38.28615c3.60019-4.12978,8.80561-3.15675,8.80561-3.15675l4.61711,4.10103-16.47908,48.3775-20.33565,28.63822-2.72536,3.98543c-.09934,1.87825-.73906,3.98191-1.92954,5.98254-2.7193,4.5706-7.28157,6.8729-10.1901,5.14241Z" fill="#ffb6b6"/><path d="M575.09344,212.53549s6.4256-.24848,10.47975,4.74292c4.05414,4.9914-17.18485,61.24887-17.18485,61.24887l-17.29955-.61242,24.00466-65.37937Z" fill="#4885ed"/></g><circle cx="576.77212" cy="189.8543" r="15.79155" fill="#ffb6b6"/><polygon points="539.83118 419.11372 529.11549 445.62096 522.91166 439.41714 520.65573 427.57348 529.67947 416.2938 539.83118 419.11372" fill="#ffb6b6"/><polygon points="640.2203 409.526 650.93599 421.93364 645.86014 432.08535 634.58046 430.3934 628.94062 414.60185 640.2203 409.526" fill="#ffb6b6"/><polygon points="568.87635 261.48024 567.46639 284.32159 602.43338 278.11776 600.17745 264.01817 568.87635 261.48024" fill="#ffb6b6"/><path d="M567.18439,284.60358l35.24899-11.56167s12.97163,25.94326-1.12797,42.29879-60.91025,109.41286-60.91025,109.41286l-14.0996-6.76781,20.30342-59.2183,22.55935-54.70643-1.97394-19.45744Z" fill="#2f2e41"/><polygon points="601.30542 305.75297 614.84103 364.97127 643.04022 410.65396 628.37664 419.11372 588.89777 364.97127 575.92614 323.23647 601.30542 305.75297" fill="#2f2e41"/><path d="M515.57988,425.31754h-9.76758s-11.39736-4.51187-14.06851,0c-2.67115,4.51187,11.91804,17.30809,11.91804,17.30809,0,0,20.3778,11.45509,23.19772,10.8911,2.81992-.56398,3.94789-7.33179,3.94789-7.33179l3.3839-7.89577-5.07585,1.69195s-6.76781-3.94789-5.07585-10.71569l-8.45976-3.94789Z" fill="#2f2e41"/><path d="M648.68006,423.62559v-5.63984l6.55687,5.63984s10.92663,3.94789,2.46687,12.40764c-8.45976,8.45976-19.17545,17.4835-19.17545,17.4835,0,0-16.91951,4.51187-18.04748-.56398-1.12797-5.07585,0-7.12973,0-7.12973l6.20382-3.02198,5.63984-14.66358,9.02374,1.12797,7.33179-5.63984Z" fill="#2f2e41"/><path d="M581.56598,192.95621l-5.07585-.56398-9.30573-9.30573s-8.45976,4.51187-8.45976,1.12797c0-15.79155,9.58772-15.22756,17.4835-16.35553,7.89577-1.12797,7.0498-1.40996,9.58772,2.81992,1.16067,1.93445,5.35785,3.10191,5.35785,3.10191,0,0,7.89577-10.71569,11.84366,2.25594,3.94789,12.97163-1.12797,53.01448,2.81992,56.39838,3.94789,3.3839-16.21,6.76279-14.02683-6.48832,2.18317-13.25111,6.13106-33.55453,3.87512-38.0664-2.25594-4.51187-2.81992-3.3839-2.81992-3.3839,2.79572-1.14146,4.6224,18.96437-5.91863,19.94879l-.28519-9.79708s-1.69195-5.07585-5.07585-1.69195Z" fill="#2f2e41"/><path d="M574.51618,212.41365l16.91951-6.76781,22.55935,67.67806-46.41593-1.69078-4.17925-20.19972s-4.08045-10.51319-.69654-16.71701c3.3839-6.20382,11.81286-22.30274,11.81286-22.30274Z" fill="#4885ed"/><g><path d="M618.54343,325.78309c-3.37198,.28962-6.47442-3.77103-6.92956-9.06994-.19925-2.31952,.142-4.49168,.87136-6.22539l-.22358-3.05086-4.69946-41.20237s-8.74828-33.703-8.23072-39.1573c.51752-5.45423,1.33485-6.90227,1.33485-6.90227l6.14216,.64035,14.81413,48.91303,.1731,35.12344,.10911,4.82693c1.01427,1.58396,1.7209,3.66611,1.91998,5.98561,.45518,5.29885-1.9094,9.82915-5.28138,10.11877Z" fill="#ffb6b6"/><path d="M590.02574,211.00369s5.07585-3.94789,11.27968-2.25594,21.74446,59.78229,21.74446,59.78229l-14.41267,9.58772-18.61147-67.11407Z" fill="#4885ed"/></g></g><path d="M296.20544,308.64001h-67.65576c-4.12891,0-7.48828-3.35938-7.48828-7.48828v-6.7666c0-4.12891,3.35938-7.4873,7.48828-7.4873h67.65576c4.12891,0,7.48828,3.3584,7.48828,7.4873v6.7666c0,4.12891-3.35938,7.48828-7.48828,7.48828Z" fill="#4885ed"/><path d="M556.20544,87.51111h-67.65576c-4.12891,0-7.48828-3.35938-7.48828-7.48828v-6.7666c0-4.12891,3.35938-7.4873,7.48828-7.4873h67.65576c4.12891,0,7.48828,3.3584,7.48828,7.4873v6.7666c0,4.12891-3.35938,7.48828-7.48828,7.48828Z" fill="#4885ed"/><path d="M396.57312,309.14001h-67.65576c-4.40479,0-7.98828-3.58398-7.98828-7.98828v-6.7666c0-4.4043,3.5835-7.9873,7.98828-7.9873h67.65576c4.40479,0,7.98828,3.58301,7.98828,7.9873v6.7666c0,4.4043-3.5835,7.98828-7.98828,7.98828Zm-67.65576-20.74219c-3.30176,0-5.98828,2.68555-5.98828,5.9873v6.7666c0,3.30176,2.68652,5.98828,5.98828,5.98828h67.65576c3.30176,0,5.98828-2.68652,5.98828-5.98828v-6.7666c0-3.30176-2.68652-5.9873-5.98828-5.9873h-67.65576Z" fill="#4885ed"/><path d="M479.56149,180.14001H123.56149c-3.30859,0-6-2.69141-6-6s2.69141-6,6-6H479.56149c3.30859,0,6,2.69141,6,6s-2.69141,6-6,6Z" fill="#e6e6e6"/><path d="M100.89001,82.64001H55.89001c-3.30859,0-6-2.69141-6-6s2.69141-6,6-6h45c3.30859,0,6,2.69141,6,6s-2.69141,6-6,6Z" fill="#e6e6e6"/><path d="M369.89001,82.64001h-45c-3.30859,0-6-2.69141-6-6s2.69141-6,6-6h45c3.30859,0,6,2.69141,6,6s-2.69141,6-6,6Z" fill="#e6e6e6"/><path d="M454.89001,82.64001h-45c-3.30859,0-6-2.69141-6-6s2.69141-6,6-6h45c3.30859,0,6,2.69141,6,6s-2.69141,6-6,6Z" fill="#e6e6e6"/><path d="M400.56149,242.14001H202.56149c-3.30859,0-6-2.69141-6-6s2.69141-6,6-6h198c3.30859,0,6,2.69141,6,6s-2.69141,6-6,6Z" fill="#e6e6e6"/><g><path d="M409.19291,373.39583H193.9371c-2.00055,0-3.62791-1.62736-3.62791-3.62791s1.62736-3.62791,3.62791-3.62791h215.25581c2.00055,0,3.62791,1.62736,3.62791,3.62791s-1.62736,3.62791-3.62791,3.62791Z" fill="#e6e6e6"/><path d="M361.42547,392.14001h-119.72093c-2.00055,0-3.62791-1.62736-3.62791-3.62791s1.62736-3.62791,3.62791-3.62791h119.72093c2.00055,0,3.62791,1.62736,3.62791,3.62791s-1.62736,3.62791-3.62791,3.62791Z" fill="#e6e6e6"/></g><path d="M411.19291,21.39583H195.9371c-2.00055,0-3.62791-1.62736-3.62791-3.62791s1.62736-3.62791,3.62791-3.62791h215.25581c2.00055,0,3.62791,1.62736,3.62791,3.62791s-1.62736,3.62791-3.62791,3.62791Z" fill="#fff"/><path d="M440.15308,9.96222l-1.36426,1.46484,6.14575,5.71295h-18.66272c-.55225,0-1,.44775-1,1s.44775,1,1,1h18.66663l-6.14966,5.71478,1.36426,1.46484,8.79602-8.17767-8.79602-8.17975Z" fill="#4885ed"/></svg>